<svg width="110" height="26" viewBox="0 0 110 26" fill="none" xmlns="http://www.w3.org/2000/svg">
<path d="M8.16016 24.125C9.56016 24.125 10.7152 23.7983 11.6252 23.145C12.5585 22.4683 13.0252 21.4183 13.0252 19.995C13.0252 18.945 12.7102 18.07 12.0802 17.37C11.4735 16.67 10.3768 16.0867 8.79016 15.62L5.53516 14.64C3.90182 14.15 2.64182 13.31 1.75516 12.12C0.891823 10.9067 0.460156 9.40167 0.460156 7.605C0.460156 6.415 0.72849 5.30667 1.26516 4.28C1.82516 3.25333 2.66516 2.425 3.78516 1.795C4.92849 1.165 6.36349 0.849998 8.09016 0.849998C9.98016 0.849998 11.5085 1.2 12.6752 1.9C13.8418 2.57667 14.6585 3.46333 15.1252 4.56C15.5918 5.65667 15.7085 6.835 15.4752 8.095L11.4502 8.83C11.8235 6.66 11.6602 4.99167 10.9602 3.825C10.2835 2.65833 9.17516 2.075 7.63516 2.075C6.44516 2.075 5.48849 2.425 4.76516 3.125C4.06516 3.825 3.71516 4.82833 3.71516 6.135C3.71516 7.20833 4.01849 8.15333 4.62516 8.97C5.25516 9.78667 6.28182 10.4167 7.70516 10.86L10.9602 11.84C12.7335 12.3533 14.0635 13.135 14.9502 14.185C15.8368 15.2117 16.2802 16.6467 16.2802 18.49C16.2802 19.7967 15.9768 20.975 15.3702 22.025C14.7868 23.0517 13.8885 23.8683 12.6752 24.475C11.4852 25.0583 9.99182 25.35 8.19516 25.35C6.88849 25.35 5.65182 25.1633 4.48516 24.79C3.31849 24.3933 2.33849 23.7517 1.54516 22.865C0.775156 21.9783 0.285156 20.7767 0.0751564 19.26L2.42016 18.42C2.53682 19.9133 2.86349 21.08 3.40016 21.92C3.96016 22.7367 4.64849 23.3083 5.46516 23.635C6.30516 23.9617 7.20349 24.125 8.16016 24.125ZM39.4685 11.98V14.185C39.4685 17.7783 38.6635 20.5433 37.0535 22.48C35.4668 24.3933 33.1101 25.35 29.9835 25.35C26.8568 25.35 24.4885 24.3933 22.8785 22.48C21.2918 20.5433 20.4985 17.7783 20.4985 14.185V11.98C20.4985 8.38667 21.2918 5.63333 22.8785 3.72C24.4885 1.80666 26.8568 0.849998 29.9835 0.849998C33.1101 0.849998 35.4668 1.80666 37.0535 3.72C38.6635 5.63333 39.4685 8.38667 39.4685 11.98ZM34.9885 10.23C34.9885 8.17667 34.8135 6.56667 34.4635 5.4C34.1135 4.21 33.5651 3.35833 32.8185 2.845C32.0951 2.33167 31.1501 2.075 29.9835 2.075C28.8401 2.075 27.8951 2.33167 27.1485 2.845C26.4018 3.35833 25.8535 4.21 25.5035 5.4C25.1535 6.56667 24.9785 8.17667 24.9785 10.23V15.935C24.9785 17.965 25.1535 19.575 25.5035 20.765C25.8535 21.955 26.4018 22.8183 27.1485 23.355C27.8951 23.8683 28.8401 24.125 29.9835 24.125C31.1501 24.125 32.0951 23.8683 32.8185 23.355C33.5651 22.8183 34.1135 21.955 34.4635 20.765C34.8135 19.575 34.9885 17.965 34.9885 15.935V10.23ZM63.0525 11.98V14.185C63.0525 17.7783 62.2475 20.5433 60.6375 22.48C59.0508 24.3933 56.6941 25.35 53.5675 25.35C50.4408 25.35 48.0725 24.3933 46.4625 22.48C44.8758 20.5433 44.0825 17.7783 44.0825 14.185V11.98C44.0825 8.38667 44.8758 5.63333 46.4625 3.72C48.0725 1.80666 50.4408 0.849998 53.5675 0.849998C56.6941 0.849998 59.0508 1.80666 60.6375 3.72C62.2475 5.63333 63.0525 8.38667 63.0525 11.98ZM58.5725 10.23C58.5725 8.17667 58.3975 6.56667 58.0475 5.4C57.6975 4.21 57.1491 3.35833 56.4025 2.845C55.6791 2.33167 54.7341 2.075 53.5675 2.075C52.4241 2.075 51.4791 2.33167 50.7325 2.845C49.9858 3.35833 49.4375 4.21 49.0875 5.4C48.7375 6.56667 48.5625 8.17667 48.5625 10.23V15.935C48.5625 17.965 48.7375 19.575 49.0875 20.765C49.4375 21.955 49.9858 22.8183 50.7325 23.355C51.4791 23.8683 52.4241 24.125 53.5675 24.125C54.7341 24.125 55.6791 23.8683 56.4025 23.355C57.1491 22.8183 57.6975 21.955 58.0475 20.765C58.3975 19.575 58.5725 17.965 58.5725 15.935V10.23ZM65.7764 1.2H85.0264V7.22H84.0464L82.9264 3.335C82.8564 3.03167 82.7748 2.82167 82.6814 2.705C82.6114 2.565 82.4598 2.48333 82.2264 2.46C81.9931 2.43667 81.5964 2.425 81.0364 2.425H77.5014V22.06C77.5014 22.8533 77.5364 23.3317 77.6064 23.495C77.6764 23.635 77.8981 23.7283 78.2714 23.775L80.1964 24.02V25H70.6064V24.02L72.5314 23.775C72.9048 23.7283 73.1264 23.635 73.1964 23.495C73.2664 23.3317 73.3014 22.8533 73.3014 22.06V2.425H69.7664C69.2298 2.425 68.8331 2.43667 68.5764 2.46C68.3431 2.48333 68.1914 2.565 68.1214 2.705C68.0514 2.82167 67.9698 3.03167 67.8764 3.335L66.7564 7.22H65.7764V1.2ZM109.954 24.02V25H100.364V24.02L102.289 23.775C102.662 23.7283 102.884 23.635 102.954 23.495C103.024 23.3317 103.059 22.8533 103.059 22.06V13.59H93.8541V22.06C93.8541 22.8533 93.8891 23.3317 93.9591 23.495C94.0291 23.635 94.2508 23.7283 94.6241 23.775L96.5491 24.02V25H86.9591V24.02L88.8841 23.775C89.2574 23.7283 89.4791 23.635 89.5491 23.495C89.6191 23.3317 89.6541 22.8533 89.6541 22.06V4.14C89.6541 3.34667 89.6191 2.88 89.5491 2.74C89.4791 2.57667 89.2574 2.47167 88.8841 2.425L86.9591 2.18V1.2H96.5491V2.18L94.6241 2.425C94.2508 2.47167 94.0291 2.57667 93.9591 2.74C93.8891 2.88 93.8541 3.34667 93.8541 4.14V12.365H103.059V4.14C103.059 3.34667 103.024 2.88 102.954 2.74C102.884 2.57667 102.662 2.47167 102.289 2.425L100.364 2.18V1.2H109.954V2.18L108.029 2.425C107.656 2.47167 107.434 2.57667 107.364 2.74C107.294 2.88 107.259 3.34667 107.259 4.14V22.06C107.259 22.8533 107.294 23.3317 107.364 23.495C107.434 23.635 107.656 23.7283 108.029 23.775L109.954 24.02Z" fill="#8A5B4C"/>
</svg>
