<svg width="18" height="17" viewBox="0 0 18 17" xmlns="http://www.w3.org/2000/svg">
<path d="M5.69969 2.83269V3.96521H16.3679V6.20707L15.1221 10.1941H5.34637L3.94266 0H0.646332V1.13252H2.96484L4.36855 11.3266H15.9456L17.4908 6.38127V2.83269H5.69969Z" fill="#8A5B4C"/>
<path d="M6.29565 12.47C5.7002 12.4707 5.12933 12.7095 4.70828 13.1341C4.28723 13.5588 4.05039 14.1345 4.04971 14.735C4.04971 15.3357 4.28634 15.9119 4.70753 16.3366C5.12873 16.7614 5.69999 17.0001 6.29565 17.0001C6.89131 17.0001 7.46257 16.7614 7.88377 16.3366C8.30496 15.9119 8.54159 15.3357 8.54159 14.735C8.54092 14.1345 8.30408 13.5588 7.88303 13.1341C7.46198 12.7095 6.8911 12.4706 6.29565 12.47ZM6.29565 15.8675C6.07355 15.8675 5.85643 15.8011 5.67176 15.6767C5.48709 15.5522 5.34316 15.3754 5.25816 15.1684C5.17317 14.9615 5.15093 14.7338 5.19426 14.5141C5.23759 14.2944 5.34454 14.0926 5.50159 13.9342C5.65864 13.7758 5.85874 13.668 6.07657 13.6243C6.2944 13.5806 6.5202 13.603 6.72539 13.6887C6.93059 13.7744 7.10597 13.9196 7.22937 14.1058C7.35276 14.2921 7.41862 14.511 7.41862 14.735C7.41827 15.0353 7.29984 15.3231 7.08932 15.5354C6.8788 15.7477 6.59337 15.8672 6.29565 15.8675Z" fill="#8A5B4C"/>
<path d="M14.1564 12.47C13.561 12.4707 12.9901 12.7095 12.5691 13.1341C12.148 13.5588 11.9112 14.1345 11.9105 14.735C11.9105 15.3357 12.1471 15.9119 12.5683 16.3366C12.9895 16.7614 13.5608 17.0001 14.1564 17.0001C14.7521 17.0001 15.3234 16.7614 15.7446 16.3366C16.1657 15.9119 16.4024 15.3357 16.4024 14.735C16.4017 14.1345 16.1649 13.5588 15.7438 13.1341C15.3228 12.7095 14.7519 12.4706 14.1564 12.47ZM14.1564 15.8675C13.9343 15.8675 13.7172 15.8011 13.5326 15.6767C13.3479 15.5522 13.2039 15.3754 13.119 15.1684C13.034 14.9615 13.0117 14.7338 13.0551 14.5141C13.0984 14.2944 13.2053 14.0926 13.3624 13.9342C13.5194 13.7758 13.7195 13.668 13.9374 13.6243C14.1552 13.5806 14.381 13.603 14.5862 13.6887C14.7914 13.7744 14.9668 13.9196 15.0902 14.1058C15.2135 14.2921 15.2794 14.511 15.2794 14.735C15.2791 15.0353 15.1606 15.3231 14.9501 15.5354C14.7396 15.7477 14.4542 15.8672 14.1564 15.8675Z" fill="#8A5B4C"/>
</svg>
