<svg width="19" height="18" viewBox="0 0 19 18" fill="none" xmlns="http://www.w3.org/2000/svg">
<path d="M5.96351 3.10603V4.28385H17.1626V6.61539L15.8548 10.7619H5.59262L4.11905 0.160034H0.658691V1.33786H3.09257L4.56613 11.9397H16.7193L18.3414 6.79655V3.10603H5.96351Z" fill="#8A5B4C"/>
<path d="M6.58914 13.1288C5.96406 13.1295 5.36478 13.3779 4.92278 13.8195C4.48078 14.2611 4.23216 14.8599 4.23145 15.4844C4.23145 16.1092 4.47984 16.7084 4.922 17.1501C5.36415 17.5919 5.96384 17.8401 6.58914 17.8401C7.21444 17.8401 7.81413 17.5919 8.25629 17.1501C8.69844 16.7084 8.94684 16.1092 8.94684 15.4844C8.94614 14.8599 8.69751 14.2611 8.25551 13.8195C7.81351 13.3779 7.21423 13.1295 6.58914 13.1288ZM6.58914 16.6623C6.35599 16.6623 6.12807 16.5932 5.93421 16.4638C5.74035 16.3343 5.58925 16.1504 5.50003 15.9352C5.4108 15.7199 5.38746 15.4831 5.43295 15.2546C5.47843 15.0262 5.59071 14.8163 5.75557 14.6516C5.92044 14.4869 6.13049 14.3747 6.35916 14.3292C6.58783 14.2838 6.82486 14.3071 7.04027 14.3963C7.25567 14.4854 7.43979 14.6364 7.56932 14.8301C7.69885 15.0238 7.76799 15.2515 7.76799 15.4844C7.76762 15.7967 7.6433 16.0961 7.4223 16.3169C7.20131 16.5377 6.90168 16.6619 6.58914 16.6623Z" fill="#8A5B4C"/>
<path d="M14.8411 13.1288C14.216 13.1295 13.6167 13.3779 13.1747 13.8195C12.7327 14.2611 12.4841 14.8599 12.4834 15.4844C12.4834 16.1092 12.7318 16.7084 13.174 17.1501C13.6161 17.5919 14.2158 17.8401 14.8411 17.8401C15.4664 17.8401 16.0661 17.5919 16.5082 17.1501C16.9504 16.7084 17.1988 16.1092 17.1988 15.4844C17.1981 14.8599 16.9495 14.2611 16.5075 13.8195C16.0655 13.3779 15.4662 13.1295 14.8411 13.1288ZM14.8411 16.6623C14.6079 16.6623 14.38 16.5932 14.1862 16.4638C13.9923 16.3343 13.8412 16.1504 13.752 15.9352C13.6628 15.7199 13.6394 15.4831 13.6849 15.2546C13.7304 15.0262 13.8427 14.8163 14.0075 14.6516C14.1724 14.4869 14.3824 14.3747 14.6111 14.3292C14.8398 14.2838 15.0768 14.3071 15.2922 14.3963C15.5076 14.4854 15.6917 14.6364 15.8213 14.8301C15.9508 15.0238 16.0199 15.2515 16.0199 15.4844C16.0196 15.7967 15.8953 16.0961 15.6743 16.3169C15.4533 16.5377 15.1536 16.6619 14.8411 16.6623Z" fill="#8A5B4C"/>
</svg>
